<?xml version="1.0"?>
<svg xmlns="http://www.w3.org/2000/svg" width="50" height="50" viewBox="0 0 50 50">
    <path d="M 28.185547 -0.001953125 C 30.935547 6.3610469 18.321391 10.289797 17.150391 15.591797 C 16.074391 20.462797 24.639484 26.121094 24.646484 26.121094 C 23.344484 24.107094 22.403656 22.441688 21.097656 19.304688 C 18.889656 13.998687 34.531547 9.2040469 28.185547 -0.001953125 z M 36.550781 8.8105469 C 36.550781 8.8105469 25.504406 9.5100313 24.941406 16.582031 C 24.690406 19.730031 27.845547 21.410172 27.935547 23.701172 C 28.008547 25.572172 26.050781 27.130859 26.050781 27.130859 C 26.050781 27.130859 29.602891 26.462469 30.712891 23.605469 C 31.943891 20.438469 28.326359 18.274281 28.693359 15.738281 C 29.044359 13.312281 36.550781 8.8105469 36.550781 8.8105469 z M 39.228516 25.146484 C 38.074277 25.093445 36.7875 25.477828 35.625 26.314453 C 37.908 25.822453 39.835938 27.219078 39.835938 28.830078 C 39.835938 32.454078 34.599609 35.878906 34.599609 35.878906 C 34.599609 35.878906 42.707031 34.952047 42.707031 28.998047 C 42.707031 26.539922 41.152246 25.234883 39.228516 25.146484 z M 19.183594 25.152344 C 19.183594 25.152344 9.0625 25.013906 9.0625 27.878906 C 9.0635 30.869906 22.315297 31.080234 31.779297 29.240234 C 31.779297 29.240234 34.308469 27.509281 34.980469 26.863281 C 28.778469 28.127281 14.619141 28.296172 14.619141 27.201172 C 14.619141 26.192172 19.183594 25.152344 19.183594 25.152344 z M 16.740234 30.722656 C 15.186234 30.722656 12.869141 31.923125 12.869141 33.078125 C 12.869141 35.403125 24.56275 37.194828 33.21875 33.798828 L 30.222656 31.960938 C 24.355656 33.838938 13.538234 33.236656 16.740234 30.722656 z M 18.179688 35.921875 C 16.051687 35.921875 14.671875 37.236172 14.671875 38.201172 C 14.671875 41.186172 27.378062 41.488125 32.414062 38.453125 L 29.214844 36.416016 C 25.453844 38.007016 16.007687 38.221875 18.179688 35.921875 z M 11.087891 38.623047 C 7.6202793 38.553949 5.3652344 40.111922 5.3652344 41.404297 C 5.3642344 48.280297 40.890625 47.949828 40.890625 40.923828 C 40.890625 39.756828 39.515531 39.2025 39.019531 38.9375 C 41.920531 45.6555 9.96875 45.134875 9.96875 41.171875 C 9.96875 40.267875 12.314188 39.384641 14.492188 39.806641 L 12.644531 38.757812 C 12.102656 38.675938 11.583264 38.632918 11.087891 38.623047 z M 44.634766 43.25 C 39.234766 48.369 25.54525 50.233266 11.78125 47.072266 C 25.54425 52.703266 44.566766 49.536 44.634766 43.25 z"/>
</svg>
