<?xml version="1.0"?>
<svg xmlns="http://www.w3.org/2000/svg" viewBox="0 0 50 50">
    <path d="M 25 12 C 18.507741 12 12.62056 13.360842 8.2734375 15.628906 C 3.9263153 17.89697 1 21.16837 1 25 C 1 28.83163 3.9263153 32.10303 8.2734375 34.371094 C 12.62056 36.639158 18.507741 38 25 38 C 31.492259 38 37.379441 36.639158 41.726562 34.371094 C 46.073685 32.10303 49 28.83163 49 25 C 49 21.16837 46.073686 17.89697 41.726562 15.628906 C 37.379441 13.360842 31.492259 12 25 12 z M 25 14 C 31.21029 14 36.823541 15.325309 40.800781 17.400391 C 44.778022 19.475473 47 22.204213 47 25 C 47 27.795787 44.778022 30.524527 40.800781 32.599609 C 36.823541 34.674691 31.21029 36 25 36 C 18.78971 36 13.176459 34.674691 9.1992188 32.599609 C 5.2219782 30.524527 3 27.795787 3 25 C 3 22.204213 5.2219782 19.475473 9.1992188 17.400391 C 13.176459 15.325309 18.78971 14 25 14 z M 22.507812 16 L 20 28 L 22.625 28 L 23.890625 22 L 25.988281 22 C 26.657281 22 27.100641 22.111031 27.306641 22.332031 C 27.511641 22.555031 27.5565 22.975984 27.4375 23.583984 L 26.478516 28 L 29.144531 28 L 30.183594 23.222656 C 30.406594 22.077656 30.236641 21.236562 29.681641 20.726562 C 29.116641 20.208562 28.121719 20 26.636719 20 L 24.296875 20 L 25.130859 16 L 22.507812 16 z M 11 20 L 8.9726562 31 L 11.617188 31 L 12.144531 28 L 13.791016 28 C 17.237016 28 19.1115 27.202141 19.8125 24.244141 C 20.4155 21.703141 18.874031 20 16.332031 20 L 11 20 z M 32 20 L 29.972656 31 L 32.617188 31 L 33.144531 28 L 34.791016 28 C 38.237016 28 40.1115 27.202141 40.8125 24.244141 C 41.4155 21.703141 39.874031 20 37.332031 20 L 32 20 z M 13.273438 22 L 15.333984 22 C 17.041984 22 17.4015 22.769953 17.3125 23.626953 C 17.0835 25.832953 15.708516 26 14.228516 26 L 12.517578 26 L 13.273438 22 z M 34.273438 22 L 36.333984 22 C 38.041984 22 38.4015 22.769953 38.3125 23.626953 C 38.0835 25.832953 36.708516 26 35.228516 26 L 33.517578 26 L 34.273438 22 z"/>
</svg>
